<svg xmlns="http://www.w3.org/2000/svg" viewBox="0 0 256 256" width="26" height="26"><path d="M214 193.385L193.346 214c-3.77 3.808-9.923 3.808-13.73 0L128 162.423 76.423 214c-3.808 3.808-10 3.808-13.77 0L42 193.385a9.727 9.727 0 010-13.77L93.577 128 42 76.423c-3.77-3.846-3.77-10.038 0-13.77L62.654 42c3.769-3.808 9.961-3.808 13.77 0L128 93.615 179.615 42c3.808-3.808 10-3.808 13.731 0L214 62.615c3.808 3.808 3.808 10 .038 13.808L162.423 128 214 179.615a9.727 9.727 0 010 13.77z" fill="#F88500" font-family="none" font-weight="none" font-size="none" text-anchor="none"/></svg>