<svg width="129" height="71" fill="none" xmlns="http://www.w3.org/2000/svg"><path d="M54.699 37.731v2.76H43.607v-2.76h11.092zM44.046 26.727v25.594h-3.234V26.728h3.234zm13.518 0v25.594H54.33V26.728h3.234z" fill="#E87A08"/><path d="M85.531 50.555v-4.352a1.77 1.77 0 00-.203-.867 1.33 1.33 0 00-.594-.578c-.265-.136-.593-.203-.984-.203a2.3 2.3 0 00-.96.187c-.272.125-.485.29-.642.492a1.078 1.078 0 00-.226.657h-1.445c0-.302.078-.602.234-.899a2.61 2.61 0 01.672-.804 3.359 3.359 0 011.062-.579 4.21 4.21 0 011.39-.218c.616 0 1.157.104 1.626.312a2.44 2.44 0 011.11.945c.27.417.406.94.406 1.57v3.938c0 .282.023.581.07.899.052.317.127.59.226.82V52h-1.507a2.698 2.698 0 01-.172-.664 5.35 5.35 0 01-.063-.781zm.25-3.68l.016 1.016h-1.461c-.412 0-.779.034-1.102.101a2.52 2.52 0 00-.812.29c-.219.13-.385.294-.5.491-.115.193-.172.42-.172.68 0 .266.06.508.18.727.12.218.3.393.539.523.245.125.544.188.898.188a2.38 2.38 0 001.172-.282c.339-.187.607-.416.805-.687.203-.271.312-.534.328-.79l.617.696a2.1 2.1 0 01-.297.727 3.502 3.502 0 01-1.602 1.367 3.106 3.106 0 01-1.234.234c-.573 0-1.075-.112-1.508-.336a2.578 2.578 0 01-1-.898 2.379 2.379 0 01-.351-1.274c0-.453.088-.851.266-1.195.177-.349.432-.638.765-.867a3.64 3.64 0 011.203-.531c.469-.12.992-.18 1.57-.18h1.68zm8.39 2.883a1.21 1.21 0 00-.14-.578c-.088-.183-.273-.347-.554-.492-.276-.152-.693-.282-1.25-.391a9.91 9.91 0 01-1.274-.352 3.861 3.861 0 01-.96-.492 2.064 2.064 0 01-.602-.68 1.89 1.89 0 01-.211-.914c0-.333.073-.648.218-.945a2.53 2.53 0 01.633-.789 3.08 3.08 0 01.992-.54c.386-.13.816-.194 1.29-.194.677 0 1.255.12 1.734.359.479.24.846.56 1.101.96.256.397.383.837.383 1.321h-1.445c0-.234-.07-.46-.211-.68a1.556 1.556 0 00-.602-.554c-.26-.146-.58-.219-.96-.219-.401 0-.727.063-.977.188-.245.12-.424.273-.54.46a1.16 1.16 0 00-.085 1.016.92.92 0 00.297.336c.14.1.338.193.594.281.255.089.58.177.976.266.693.156 1.263.344 1.711.563.448.218.781.486 1 .804.219.318.328.703.328 1.156a2.251 2.251 0 01-.898 1.813 3.3 3.3 0 01-1.031.516c-.396.12-.842.18-1.336.18-.745 0-1.375-.134-1.891-.4-.516-.265-.906-.609-1.172-1.03a2.467 2.467 0 01-.398-1.336h1.453c.02.395.135.71.344.945.208.23.463.393.765.492.302.094.602.14.899.14.395 0 .726-.051.992-.156.27-.104.476-.247.617-.43a.995.995 0 00.21-.624zm6.884-6.211v1.11h-4.57v-1.11h4.57zm-3.024-2.055h1.446v8.414c0 .287.044.503.132.649a.635.635 0 00.344.289c.141.047.292.07.453.07.12 0 .245-.01.375-.031.136-.026.237-.047.305-.063l.008 1.18a3.41 3.41 0 01-.453.102 3.46 3.46 0 01-.664.054c-.355 0-.68-.07-.977-.21a1.568 1.568 0 01-.71-.704c-.173-.333-.259-.781-.259-1.344v-8.406zm8.227 10.664a4.158 4.158 0 01-1.602-.297 3.622 3.622 0 01-1.226-.851 3.794 3.794 0 01-.782-1.297 4.763 4.763 0 01-.273-1.64v-.329c0-.687.102-1.3.305-1.836.203-.541.479-1 .828-1.375a3.553 3.553 0 011.187-.851c.443-.193.901-.29 1.375-.29.604 0 1.125.105 1.563.313.443.208.805.5 1.086.875.281.37.489.807.625 1.313.135.5.203 1.047.203 1.64v.649h-6.313V47h4.868v-.11a3.592 3.592 0 00-.235-1.093 1.96 1.96 0 00-.625-.875c-.286-.23-.677-.344-1.172-.344a1.966 1.966 0 00-1.617.82 3.08 3.08 0 00-.461.993c-.109.39-.164.84-.164 1.351v.328c0 .401.055.779.164 1.133.115.35.279.656.492.922.219.266.482.474.789.625.313.151.667.227 1.063.227.51 0 .943-.105 1.297-.313.354-.208.664-.487.929-.836l.876.695c-.183.276-.415.54-.696.79a3.31 3.31 0 01-1.039.609c-.406.156-.888.234-1.445.234zm6.422-7.281V52h-1.446v-8.453h1.407l.039 1.328zm2.64-1.375l-.008 1.344a2.066 2.066 0 00-.343-.047 3.66 3.66 0 00-.36-.016c-.333 0-.627.052-.882.157-.256.104-.472.25-.649.437a2.104 2.104 0 00-.422.672 3.217 3.217 0 00-.195.844l-.406.234c0-.51.049-.99.148-1.438.104-.447.263-.843.477-1.187.213-.349.484-.62.812-.813.334-.197.729-.296 1.188-.296.104 0 .224.013.359.039.135.02.229.044.281.07zm-51.01-3.962h1.643l4.192 10.433 4.184-10.433h1.652l-5.203 12.797h-1.283l-5.186-12.797zm-.537 0h1.45l.238 7.805v4.992h-1.688V39.538zm11.285 0h1.45v12.797h-1.687v-4.992l.237-7.805z" fill="#fff"/><path d="M61.86 32.631v-.157c0-.533.077-1.027.232-1.483.155-.46.378-.86.67-1.197a2.989 2.989 0 011.06-.793 3.29 3.29 0 011.394-.287c.52 0 .986.096 1.401.288.42.186.775.45 1.066.792.297.338.522.736.677 1.197.155.456.233.95.233 1.483v.157a4.58 4.58 0 01-.233 1.484c-.155.456-.38.854-.677 1.196a3.1 3.1 0 01-1.06.793c-.41.187-.874.28-1.394.28a3.37 3.37 0 01-1.401-.28 3.17 3.17 0 01-1.066-.793 3.611 3.611 0 01-.67-1.196 4.578 4.578 0 01-.233-1.484zm1.264-.157v.157c0 .37.043.718.13 1.046.086.324.216.61.39.862.177.25.398.448.663.594.264.142.572.212.922.212.347 0 .65-.07.91-.212.264-.146.483-.344.656-.594a2.77 2.77 0 00.39-.862c.09-.328.136-.676.136-1.046v-.157a3.8 3.8 0 00-.136-1.032 2.66 2.66 0 00-.397-.868 1.884 1.884 0 00-.656-.602 1.84 1.84 0 00-.916-.219 1.85 1.85 0 00-.916.22c-.26.145-.479.346-.657.6-.173.251-.303.54-.39.869-.086.323-.13.667-.13 1.032zm11.58 2.065V28.85h1.272v7.397h-1.21l-.062-1.71zm.24-1.559l.526-.014c0 .492-.053.948-.158 1.367-.1.415-.264.775-.492 1.08a2.328 2.328 0 01-.895.718c-.37.169-.818.253-1.347.253-.36 0-.69-.052-.991-.157a1.982 1.982 0 01-.766-.485 2.208 2.208 0 01-.499-.855c-.114-.35-.17-.772-.17-1.264V28.85h1.264v4.785c0 .333.036.609.11.827.077.215.18.386.307.513.132.123.278.21.437.26.165.05.333.075.506.075.538 0 .964-.102 1.279-.308.314-.21.54-.49.676-.84.142-.356.212-.75.212-1.183zm7.266 1.306c0-.183-.041-.351-.123-.506-.078-.16-.24-.303-.486-.43-.241-.133-.606-.247-1.093-.343a8.664 8.664 0 01-1.115-.307 3.377 3.377 0 01-.84-.431 1.806 1.806 0 01-.527-.595 1.657 1.657 0 01-.184-.8c0-.291.064-.567.191-.827.132-.26.317-.49.554-.69.241-.2.53-.358.868-.472.337-.114.713-.17 1.128-.17.592 0 1.098.104 1.517.314.42.21.741.49.964.84.224.347.335.732.335 1.156h-1.264c0-.205-.062-.403-.185-.595a1.362 1.362 0 00-.526-.485c-.228-.128-.508-.192-.841-.192-.351 0-.636.055-.855.165a1.089 1.089 0 00-.471.403 1.015 1.015 0 00-.076.888.81.81 0 00.26.294c.123.087.296.169.52.247.223.077.508.154.854.232.606.137 1.106.3 1.497.492.392.192.684.426.875.704.192.278.288.616.288 1.012a1.97 1.97 0 01-.786 1.586 2.89 2.89 0 01-.903.451 4.031 4.031 0 01-1.169.157c-.652 0-1.203-.116-1.654-.348-.451-.233-.793-.534-1.026-.903a2.159 2.159 0 01-.348-1.169h1.271c.019.347.119.622.301.828.182.2.406.344.67.43.264.082.526.123.786.123.346 0 .636-.045.868-.136a1.21 1.21 0 00.54-.377.871.871 0 00.185-.546zm5.995 2.098a3.62 3.62 0 01-1.401-.26 3.176 3.176 0 01-1.074-.745 3.313 3.313 0 01-.683-1.134 4.162 4.162 0 01-.24-1.436v-.287c0-.602.09-1.137.267-1.606.178-.474.42-.875.725-1.204a3.104 3.104 0 011.039-.745 2.985 2.985 0 011.203-.253c.529 0 .984.091 1.367.274.388.182.704.437.95.765.246.324.429.707.547 1.149.119.437.178.916.178 1.435v.568H85.56v-1.032h4.258v-.096a3.153 3.153 0 00-.205-.957 1.721 1.721 0 00-.547-.766c-.25-.2-.592-.3-1.025-.3a1.721 1.721 0 00-1.415.717 2.685 2.685 0 00-.404.868 4.4 4.4 0 00-.143 1.183v.287c0 .351.048.681.144.991.1.306.243.575.43.807.192.232.422.415.69.547.274.132.584.198.93.198.447 0 .825-.091 1.135-.273a2.82 2.82 0 00.814-.732l.765.609a3.54 3.54 0 01-.608.69c-.246.219-.55.396-.91.533-.355.137-.776.205-1.264.205z" fill="#E87A08"/><path transform="matrix(.83221 -.55446 .4969 .8678 1 46.595)" stroke="#fff" d="M0-.5h82.234"/><path transform="matrix(.86703 .49825 -.3759 .92666 67.423 1)" stroke="#fff" d="M0-.5h57.883"/></svg>