<svg width="754" height="55" fill="none" xmlns="http://www.w3.org/2000/svg"><path d="M343.04 42.798c1.026-.025 8.105-.094 15.732-.175 7.627-.106 18.708-.25 24.625-.377 12.417-.239 12.588-.26 20.536-2.85 11.63-3.802 17.966-4.338 36.166-3.08 15.947 1.116 23.437 1.005 28.354-.46 8.597-2.547 8.082-2.456 11.672-2.41 3.077.004 10.058-.304 32.032-1.462 4.415-.247 9.926-.569 12.221-.743 3.012-.206 4.38-.195 4.855.002.373.167 1.532.33 2.592.359 1.674.046 2.052-.05 2.953-.68.555-.405 1.046-1.047 1.053-1.415.041-.366.084-.837.122-.993.038-.235 1.271-.359 4.316-.407 17.887-.273 51.915-.578 85.495-.764 8.925-.046 26.844-.16 39.77-.228 32.076-.2 38.5.027 46.711 1.588 5.485 1.042 6.852 1.08 11.688.293 2.366-.382 4.766-.683 5.278-.67.547.015 1.54-.089 2.192-.202.653-.14 3.803-.395 7.021-.596 10.236-.639 14.147-1.345 14.926-2.74.248-.466.38-1.984.354-4.214-.042-3.176-.135-3.65-.899-4.852l-.829-1.334-5.293-.328c-5.738-.34-10.107-.774-18.806-1.798-7.778-.92-13.214-.964-16.376-.106-6.188 1.72-12.928 1.956-60.358 2.237-21.818.14-43.053.27-47.191.288-40.285.318-68.051.453-68.289.341-.135-.082-.266-.374-.261-.636.014-.734-1.568-2.063-2.894-2.44-1.36-.378-2.662-.283-4.485.297-1.101.39-2.776.344-20.201-.34-10.489-.418-22.106-.84-25.866-.942l-6.834-.213-3.055-1.158c-7.774-2.94-16.65-3.655-29.19-2.344-10.209 1.06-14.007 1.192-24.123.916-10.97-.273-14.723-.716-22.314-2.497l-4.629-1.097-10.937-.245c-15.277-.338-47.321-.058-49.485.46-3.091.703-6.426 3.472-7.747 6.4-.322.752-1.9 2.808-3.506 4.521-1.572 1.741-3.149 3.77-3.506 4.522-1.248 2.72-.21 5.634 3.735 10.332 1.136 1.37 2.536 3.27 3.064 4.255.529.959 1.256 2.264 1.587 2.877.793 1.412 2.609 3.035 4.605 4.139l1.557.83 4.99.083c2.735.048 5.846.08 6.872.056zm48.948-4.542c-.775-.624-.729-1.252.134-1.649.793-.345 1.534.226 1.819 1.414.191.74.121.843-.529.825-.376-.01-1.02-.264-1.424-.59zm-61.395-2.592l-.086-.842 4.89-.024c2.702-.03 8.891-.046 13.78-.044 4.89-.024 14.123-.06 20.518-.122 17.577-.124 16.04-.193 16.16.703.06.421-.016.839-.19.965-.173.127-5.818.261-12.588.286-6.771.052-15.766.148-20.007.216-4.241.094-11.01.04-15.043-.096l-7.347-.226-.087-.816zm64.61-4.639c-1.216-2.578-1.649-4.95-1.45-8.224.101-1.676.265-3.141.404-3.242.45-.303 1.256.48 1.41 1.35.094.449.304 2.002.482 3.45.211 1.448.614 3.61.968 4.8.64 2.274.721 3.43.331 4.154-.179.389-.281.386-.818-.18-.369-.35-.932-1.31-1.327-2.108zm-6.351-.462c-1.252-2.474-.799-4.717.978-4.669.445.012.642.437.952 2.072.465 2.505.454 3.108-.037 3.75-.562.772-1.103.443-1.893-1.153zm46.412-.676c-4.61-.335-10.416-.677-12.91-.745l-4.511-.123.019-1.023c.011-.55.227-1.148.504-1.298.692-.427 5.145-.856 9.284-.953 1.881-.028 8.48-.031 14.703.007 9.299.044 12.344-.03 17.276-.473 3.287-.278 6.744-.446 7.631-.343 2.014.186 3.367.957 3.755 2.122.292.822.222.925-.851 1.604-2.041 1.23-5.575 1.867-11.494 2.073-3.764.134-15.962-.304-23.406-.848zm-114.748-3.653c-1.375-1.401-1.251-4.336.209-5.582l.834-.685.036 3.49c.032 1.89-.066 3.46-.203 3.457-.137-.004-.541-.303-.876-.68zm160.9 4.046c-.572-.488-1.07-1.262-1.293-2.134-.413-1.638-.373-7.303.041-7.501.552-.248 14.439-.525 24.868-.53 5.642-.003 12.857-.042 16.004-.114 5.302-.117 5.815-.077 6.422.359.472.354.536.54.258.82-.313.254-1.784.293-6.261.17-5.844-.133-10.359-.046-29.108.545-10.469.318-11.258.454-11.075 1.613.154.896 6.308.907 27.969.002 3.114-.125 8.519-.24 12.007-.25l6.359.016.199 2.104c.081 1.157.059 2.31-.048 2.543-.462.906.223.846-20.17 1.575-6.569.24-19.065 1.054-21.054 1.367-2.538.404-4.073.23-5.118-.585zm-151.629-4.291c-.911-.629-.943-.76-.898-3.12l.047-2.439 7.692.026c4.24.011 12.927-.093 19.323-.207 6.397-.14 15.322-.212 19.835-.168 7.111.063 8.272.12 8.642.472.335.35.298.506-.189.939-1.043.863-10.518 1.077-39.919.827-9.161-.093-14.154-.045-14.466.156-.657.376-.569 1.165.205 1.79.573.461.981.551 2.317.456.89-.054 9.679-.182 19.562-.253 18.263-.184 26.847-.318 30.68-.502 2.02-.102 2.156-.072 2.146.426-.007.367-.353.594-1.143.782-1.785.371-9.413.53-24.697.533-15.284.003-22.263.18-24.801.636-2.402.433-3.29.356-4.336-.354zm201.211-4.824c.067-3.487.223-6.264.357-6.155.135.108.454 1.324.769 2.697.564 2.69.633 9.854.097 11.02l-.285.648-.53-.933c-.429-.772-.508-2.033-.408-7.277zm4.887 3.727c-.808-.652-.902-2.91-.138-3.493.381-.278 1.887-.368 5.751-.394 5.096-.044 37.074-.458 62.348-.792 23.155-.34 47.297-.442 59.33-.297 5.059.059 5.298.091 5.391.592.062.29.227.61.362.719.101.107 2.898.446 6.174.771 6.963.662 14.331 1.545 14.772 1.767.88.444-1.208.57-10.372.583-26.807.03-39.323.108-90.791.542-13.918.118-29.615.215-34.88.229-5.266.014-11.046.092-12.825.149-1.78.082-3.525.14-3.867.157-.308-.009-.885-.234-1.255-.533zm-149.247-7.296c-.621-1.512.44-3.32 1.943-3.278.786.021.819.1.789 1.7-.042 2.176-.254 2.511-1.416 2.48-.786-.022-1.022-.185-1.316-.902zm330.11 8.056c-1.398-.196-3.102-.478-3.783-.654-1.157-.294-1.224-.374-1.569-1.984-.222-.924-.359-2.686-.336-3.918l.044-2.255 2.749-.738c1.512-.405 3.468-.771 4.29-.854l1.541-.115-.022 1.154c-.012.629.194 2.392.438 3.92.245 1.528.446 3.501.429 4.42-.028 1.467-.1 1.649-.645 1.503-.306-.087-1.737-.31-3.136-.479zm6.362-.141c-.878-.549-.877-.601-.812-4.01.037-1.914-.095-3.964-.254-4.598-.224-.793-.215-1.29.066-1.65.807-1.106 1.128.004 1.258 3.943.077 3.123.197 4.019.698 4.61.334.402.739.675.912.601.207-.099.379-1.93.423-4.264.043-2.255.219-4.27.394-4.475.279-.307 1.338-.278 7.451.15 8.399.623 15.462 1.393 15.866 1.719.505.407.96 3.462.732 4.663l-.262 1.147-2.434.353c-2.914.42-9.081 1.064-13.704 1.41-3.972.312-3.871.393-3.301-2.608.38-2.01.162-3.091-.651-3.48-.745-.388-1.036.496-.873 2.73.156 2.549-.242 3.719-1.378 4.107-1.274.438-3.151.282-4.131-.348zm-15.779-6.307c-.014-1.05.482-1.954.852-1.63.337.272.523 4.842.235 5.621-.253.675-.353.541-.697-1.095-.221-1.002-.401-2.319-.39-2.896zm-3.575 2.788c.09-1.099-.068-1.812-.466-2.426-.466-.694-.496-.905-.113-1.236.278-.228.725-.4 1.067-.39.479.013.609.357.713 2.065.188 2.655-.038 3.777-.788 3.651-.443-.09-.505-.407-.413-1.663zm-167.616-3.31c-.538-.435-.503-.486.423-.618.548-.09 4.995-.179 9.885-.203 77.522-.431 122.8-.823 140.04-1.192 2.908-.079 5.918-.101 6.669-.055 2.358.09.231.453-4.391.773-2.294.147-5.342.378-6.745.471-3.904.314-11.12.353-54.373.354-36.107-.014-51.77.137-72.158.656-17.344.446-18.541.44-19.35-.186zm-205.966-7.583c-.267-.348-.262-.61.018-.918.349-.41 1.205-.44 9.237-.273 4.887.107 12.066.172 15.965.12 6.328-.089 11.012-.119 25.444-.25 3.933-.05 4.206-.016 4.913.554.371.298.569.671.43.772-.554.379-15.673.675-34.341.638-5.916-.004-11.626-.002-12.652.022-1.026-.001-3.418-.04-5.264-.09-2.836-.104-3.449-.2-3.75-.575zm149.907 3.169c-.062-.343.15-.678.529-.825.413-.146 8.478.047 23.308.583 20.159.733 22.687.88 23.158 1.26.471.38.47.46.057.58-.618.14-12.957-.065-31.924-.609l-15.036-.41-.092-.58z" fill="#000" fill-opacity=".59"/><path stroke="#000" stroke-opacity=".61" stroke-width="2" d="M53.264 35.092H325.56M53.266 12.858h273.022"/><path d="M53.7 34.566L7.112 24.935l46.2-11.198.388 20.829z" stroke="#000" stroke-opacity=".61" stroke-width="3"/><path stroke="#000" stroke-opacity=".61" d="M53.266 23.783h266.452"/><path d="M19.912 25.974c0-9.824-7.294 0-12.23 0h8.092c3.806 0 4.138-4.792 4.138 1.575" stroke="#000" stroke-opacity=".61" stroke-width="3" stroke-linecap="round"/><path transform="matrix(.99752 -.07034 .07758 .99699 13.845 24.283)" stroke="#000" stroke-opacity=".61" d="M0-.5h39.518"/><path transform="matrix(.99354 .1135 -.12507 .99215 16.765 23.588)" stroke="#000" stroke-opacity=".61" d="M0-.5h36.738"/><path stroke="#000" stroke-opacity=".61" d="M230.656 17.873h89.063M54.72 27.95h98.562"/></svg>