<svg width="707" height="280" fill="none" xmlns="http://www.w3.org/2000/svg"><path transform="matrix(.99823 .0594 -.06348 .99798 -.008 237.927)" stroke="#606263" d="M0-.5h708.258"/><path d="M688.484 205.527c0 1.231-.588 2.446-1.74 3.599-1.154 1.155-2.849 2.218-4.984 3.121-4.268 1.806-10.199 2.935-16.776 2.935s-12.508-1.129-16.775-2.935c-2.135-.903-3.831-1.966-4.985-3.121-1.152-1.153-1.74-2.368-1.74-3.599 0-1.231.588-2.447 1.74-3.6 1.154-1.154 2.85-2.217 4.985-3.121 4.267-1.806 10.198-2.935 16.775-2.935 6.577 0 12.508 1.129 16.776 2.935 2.135.904 3.83 1.967 4.984 3.121 1.152 1.153 1.74 2.369 1.74 3.6zm-374.995-10.639c0 1.231-.588 2.447-1.74 3.599-1.154 1.155-2.85 2.218-4.985 3.121-4.267 1.806-10.198 2.935-16.775 2.935-6.577 0-12.508-1.129-16.776-2.935-2.135-.903-3.83-1.966-4.984-3.121-1.152-1.152-1.74-2.368-1.74-3.599 0-1.231.588-2.447 1.74-3.6 1.154-1.154 2.849-2.217 4.984-3.121 4.268-1.806 10.199-2.935 16.776-2.935s12.508 1.129 16.775 2.935c2.135.904 3.831 1.967 4.985 3.121 1.152 1.153 1.74 2.369 1.74 3.6zM589.485 56.58c0 1.231-.587 2.447-1.74 3.6-1.154 1.154-2.849 2.217-4.984 3.12-4.268 1.807-10.199 2.936-16.776 2.936s-12.507-1.13-16.775-2.935c-2.135-.904-3.83-1.967-4.985-3.121-1.152-1.153-1.739-2.369-1.739-3.6 0-1.23.587-2.447 1.739-3.6 1.155-1.154 2.85-2.217 4.985-3.12 4.268-1.806 10.198-2.935 16.775-2.935 6.577 0 12.508 1.129 16.776 2.935 2.135.903 3.83 1.966 4.984 3.12 1.153 1.154 1.74 2.37 1.74 3.6z" stroke="#525455"/><path transform="matrix(-.89063 .45474 -.47909 -.87777 465.987 0)" stroke="#5F5454" d="M0-.5h523.221"/></svg>