<svg width="388" height="242" fill="none" xmlns="http://www.w3.org/2000/svg"><path transform="matrix(-.01518 -.99989 -.9999 .01439 71.368 234.722)" stroke="#736A6A" d="M0-.5h183.461"/><path transform="matrix(.0187 .99982 .99982 -.01874 1.986 48.117)" stroke="#736A6A" d="M0-.5h147.916"/><path transform="matrix(.02068 .99979 .99978 -.02101 173.038 46.167)" stroke="#736A6A" d="M0-.5h178.965"/><path transform="matrix(.02637 .99965 .99967 -.02557 273.036 29.33)" stroke="#736A6A" d="M0-.5h201.489"/><path transform="matrix(.99008 -.1405 .22999 .9732 70.682 234.763)" stroke="#736A6A" d="M0-.5h308.157"/><path transform="matrix(.99348 -.11397 -.17969 -.98372 66.762 63.287)" stroke="#736A6A" d="M0-.5h307.914"/><path transform="matrix(.99374 -.11175 -.12877 -.99167 2.412 52.481)" stroke="#736A6A" d="M0-.5h309.061"/><path stroke="#736A6A" d="M373.17 28.184l3.112 163.274"/><path transform="matrix(-.99177 .128 .14119 .98998 383.871 76.733)" stroke="#736A6A" d="M0-.5h280.718"/><path transform="matrix(-.9895 .14453 .15964 .98718 239.934 193.075)" stroke="#736A6A" d="M0-.5h236.812"/><path transform="matrix(-.99114 .1328 .11384 .9935 384.727 144.23)" stroke="#736A6A" d="M0-.5h329.484"/><path transform="matrix(-.99088 -.13474 -.10927 .99401 95.32 239.367)" stroke="#736A6A" d="M0-.5h91.971"/><path d="M86.5 63.539L2.904 53.403m380.444 138.293l-83.595-10.135M383.5 28.201l-83.596-10.135" stroke="#736A6A"/><path transform="matrix(.02378 .99972 .99973 -.02307 305.423 1.478)" stroke="#958B8B" d="M0-.5h180.027"/></svg>