<svg width="315" height="205" fill="none" xmlns="http://www.w3.org/2000/svg"><path transform="matrix(.00333 -1 1 .00204 257.991 199.666)" stroke="#736A6A" d="M0-.5h158.698"/><path stroke="#736A6A" d="M313.351 37.515l-.851 127.948"/><path transform="rotate(90.488 67.929 104.704) skewX(-.031)" stroke="#736A6A" d="M0-.5h154.809"/><path stroke="#736A6A" d="M91.922 24.19L89.5 198.466"/><path transform="matrix(-.99075 -.13567 -.20683 .97838 258.552 199.693)" stroke="#736A6A" d="M0-.5h251.784"/><path transform="matrix(-.9942 -.10758 .15897 -.98728 260.121 51.332)" stroke="#736A6A" d="M0-.5h251.497"/><path transform="matrix(-.99445 -.10523 .11068 -.99386 312.545 41.291)" stroke="#736A6A" d="M0-.5h252.427"/><path stroke="#736A6A" d="M9.583 24.272L8.596 165.53M1.463 65.884l227.598 28.079M120.07 164.964l191.598 27.08"/><path transform="matrix(.99184 .12751 -.09655 .99533 1.345 124.771)" stroke="#736A6A" d="M0-.5h269.18"/><path transform="matrix(.98782 -.15563 .11414 .99347 238.485 203.94)" stroke="#736A6A" d="M0-.5h75.187"/><path d="M244.012 51.763l68.14-9.668M2.922 165.813l68.14-9.668M1.243 24.398l68.14-9.668" stroke="#736A6A"/><path stroke="#958B8B" d="M65.221.448l-1.767 155.718"/></svg>