<svg width="60" height="60" fill="none" xmlns="http://www.w3.org/2000/svg"><path d="M53.164 2.539a.937.937 0 00-.265-1.51 11.22 11.22 0 00-12.746 2.234c-3.184 3.204-4.295 8.236-2.81 12.444L15.707 37.343a11.078 11.078 0 00-3.743-.63c-3.213 0-6.33 1.278-8.548 3.51-3.341 3.36-4.282 8.325-2.402 12.65a.937.937 0 00.687.548.93.93 0 00.838-.261l6.545-6.58c.432-.434 1.127-.492 1.487-.127l2.826 2.957c.41.414.392 1.054-.041 1.49l-6.522 6.563a.936.936 0 00.265 1.508 11.313 11.313 0 004.858 1.102c2.947 0 5.747-1.185 7.888-3.337 3.184-3.203 4.296-8.235 2.809-12.443l21.635-21.637a11.1 11.1 0 003.745.63c3.214 0 6.33-1.28 8.548-3.51 3.341-3.36 4.282-8.325 2.402-12.651a.934.934 0 00-.687-.548.952.952 0 00-.838.261l-6.545 6.58c-.403.405-1.088.4-1.502-.02l-2.81-2.81a1.034 1.034 0 01-.003-1.489l6.565-6.56zm-7.89 9.375l2.81 2.81c1.123 1.13 3.047 1.135 4.16.017l5.493-5.52c.88 3.265-.03 6.767-2.483 9.236-1.869 1.881-4.498 2.957-7.218 2.957a9.174 9.174 0 01-3.606-.712.936.936 0 00-1.03.199L20.9 43.4a.935.935 0 00-.2 1.025c1.506 3.581.589 8.203-2.18 10.99-2.477 2.49-6.083 3.377-9.348 2.358l5.515-5.55c1.164-1.171 1.183-2.988.054-4.12l-2.823-2.958c-1.09-1.097-3.027-1.03-4.16.117l-5.493 5.52c-.88-3.265.03-6.767 2.482-9.237 1.87-1.88 4.499-2.957 7.22-2.957 1.28 0 2.493.24 3.605.713.35.154.76.07 1.03-.199l22.5-22.5a.935.935 0 00.2-1.026c-1.506-3.58-.589-8.205 2.18-10.99 2.476-2.49 6.08-3.372 9.342-2.36l-5.55 5.552a2.9 2.9 0 000 4.135z" fill="#ffff"/><path d="M54.769 57.463a1.115 1.115 0 01-1.55-.004L34.411 38.71a.938.938 0 00-1.324 1.33l18.804 18.746a2.95 2.95 0 002.104.876c.795 0 1.541-.312 2.115-.89l2.68-2.799a2.904 2.904 0 00-.002-4.136l-18.75-18.75a.938.938 0 00-1.326 1.326L57.461 53.16c.43.431.43 1.058-.013 1.504l-2.68 2.8zM10.976 5.899L5.351.274a.938.938 0 00-1.325 0l-3.75 3.75a.938.938 0 000 1.325L5.9 10.974a.928.928 0 00.662.276c.24 0 .48-.092.663-.274l1.212-1.213L22.773 24.1a.936.936 0 001.327.002.938.938 0 000-1.325L9.763 8.437l1.211-1.21a.939.939 0 00.002-1.328zM6.562 8.987l-4.299-4.3 2.425-2.424 4.299 4.3-2.425 2.424z" fill="#ffff"/></svg>