<svg width="60" height="60" fill="none" xmlns="http://www.w3.org/2000/svg"><path d="M52.83 44.989l-7.307-5.696a5.61 5.61 0 00-6.945.025l-1.624 1.287a3.115 3.115 0 01-4.147-.238L19.742 27.264a3.15 3.15 0 01-.238-4.172l1.287-1.623a5.628 5.628 0 00.025-6.958l-5.683-7.32a5.624 5.624 0 00-8.42-.524L2.03 11.35c-2.586 2.585-6.32 10.892 14.726 31.99 13.728 13.752 22.097 16.637 26.706 16.637 2.76 0 4.372-1.024 5.234-1.886l4.671-4.672c2.199-2.21 2.199-5.783-.012-7.981a5.891 5.891 0 00-.525-.45zm-1 6.37a1.997 1.997 0 01-.249.3l-4.671 4.672c-.525.524-1.55 1.149-3.46 1.149-3.386 0-11.117-2.061-24.932-15.913C2.604 25.627.643 16.271 3.79 13.111L8.462 8.44a3.13 3.13 0 012.21-.912h.188c.9.062 1.723.5 2.273 1.199l5.683 7.32a3.133 3.133 0 01-.012 3.872l-1.287 1.624a5.635 5.635 0 00.437 7.482l13.078 13.09a5.62 5.62 0 007.47.437l1.624-1.286c1.124-.9 2.723-.9 3.86-.013l7.307 5.696a3.13 3.13 0 01.537 4.41zM31.27.022c-.686 0-1.248.562-1.248 1.249s.562 1.249 1.249 1.249c14.464 0 26.23 11.766 26.23 26.23 0 .688.563 1.25 1.25 1.25s1.25-.562 1.25-1.25C60 12.913 47.108.023 31.27.023z" fill="#ffff"/><path d="M51.256 28.75c0 .688.563 1.25 1.25 1.25s1.249-.562 1.249-1.25c0-12.403-10.093-22.483-22.484-22.483-.687 0-1.25.562-1.25 1.25 0 .686.55 1.248 1.25 1.248 11.017 0 19.985 8.969 19.985 19.986z" fill="#ffff"/><path d="M31.27 15.023c7.57 0 13.74 6.158 13.74 13.715 0 .687.563 1.25 1.25 1.25s1.25-.563 1.25-1.25c0-8.943-7.283-16.225-16.24-16.225a1.256 1.256 0 000 2.51z" fill="#ffff"/><path d="M31.283 18.783c-.687 0-1.249.562-1.249 1.25 0 .686.562 1.248 1.25 1.248a7.434 7.434 0 017.432 7.433c0 .687.562 1.249 1.249 1.249s1.249-.562 1.249-1.25c0-5.483-4.447-9.93-9.93-9.93z" fill="#ffff"/></svg>