<svg width="50" height="50" fill="none" xmlns="http://www.w3.org/2000/svg"><path d="M45.833 0h-10a4.312 4.312 0 00-2.946 1.144 3.787 3.787 0 00-1.22 2.762v42.188c0 1.036.439 2.03 1.22 2.762A4.312 4.312 0 0035.833 50h10a4.312 4.312 0 002.947-1.144A3.787 3.787 0 0050 46.094V3.906c0-1.036-.439-2.03-1.22-2.762A4.312 4.312 0 0045.833 0zm-9.166 1.563H45v.78a.757.757 0 01-.244.553.862.862 0 01-.59.229H37.5a.863.863 0 01-.59-.229.758.758 0 01-.243-.552v-.781zm-3.334 20.312H35v6.25h-1.667v-6.25zM45 48.438h-8.333v-.782c0-.207.087-.406.244-.552a.863.863 0 01.589-.229h6.667c.22 0 .433.082.589.229a.757.757 0 01.244.552v.782zm3.333-2.344a2.245 2.245 0 01-.461 1.347c-.299.394-.72.692-1.205.853v-.638c0-.621-.264-1.218-.733-1.657a2.587 2.587 0 00-1.767-.687H37.5c-.663 0-1.299.247-1.768.687A2.272 2.272 0 0035 47.656v.638a2.49 2.49 0 01-1.205-.853 2.246 2.246 0 01-.462-1.347V29.687H37.5c.663 0 1.299-.246 1.768-.686.469-.44.732-1.036.732-1.657v-4.688c0-.621-.263-1.217-.732-1.657a2.587 2.587 0 00-1.768-.686h-4.167V3.905c.003-.483.164-.953.462-1.347A2.49 2.49 0 0135 1.706v.638c0 .621.263 1.217.732 1.657.47.44 1.105.686 1.768.686h6.667c.663 0 1.299-.246 1.767-.686a2.27 2.27 0 00.733-1.657v-.638a2.49 2.49 0 011.205.853c.298.394.46.864.461 1.347v42.188zM36.667 28.125v-6.25h.833c.221 0 .433.082.59.229a.757.757 0 01.243.552v4.688a.757.757 0 01-.244.552.863.863 0 01-.589.229h-.833zm4.166-18.75c-.824 0-1.63.23-2.314.658a3.973 3.973 0 00-1.535 1.753 3.681 3.681 0 00-.237 2.257c.16.758.557 1.454 1.14 2a4.259 4.259 0 002.133 1.07c.809.15 1.646.073 2.408-.223a4.12 4.12 0 001.87-1.439 3.735 3.735 0 00.702-2.17c0-1.036-.439-2.03-1.22-2.762a4.312 4.312 0 00-2.947-1.144zM40 15.481a2.475 2.475 0 01-1.208-.85 2.232 2.232 0 01-.46-1.35c0-.483.161-.955.46-1.35a2.475 2.475 0 011.208-.85v4.4zm1.667 0v-4.4c.487.16.909.457 1.208.85.299.395.46.867.46 1.35 0 .484-.161.955-.46 1.35a2.476 2.476 0 01-1.208.85zm-.834 17.331c-.824 0-1.63.23-2.314.659a3.973 3.973 0 00-1.535 1.753 3.681 3.681 0 00-.237 2.257c.16.758.557 1.454 1.14 2a4.259 4.259 0 002.133 1.069 4.44 4.44 0 002.408-.222 4.12 4.12 0 001.87-1.44 3.735 3.735 0 00.702-2.17 3.786 3.786 0 00-1.22-2.761 4.312 4.312 0 00-2.947-1.145zM40 38.92a2.476 2.476 0 01-1.208-.85 2.232 2.232 0 01-.46-1.35c0-.484.161-.956.46-1.35A2.476 2.476 0 0140 34.52v4.4zm1.667 0v-4.4c.487.159.909.456 1.208.85.299.395.46.866.46 1.35 0 .483-.161.955-.46 1.35a2.477 2.477 0 01-1.208.85zm-27.5-4.544c-.66 0-1.304.183-1.852.527a3.177 3.177 0 00-1.228 1.402 2.944 2.944 0 00-.19 1.806 3.07 3.07 0 00.913 1.6 3.41 3.41 0 001.706.855c.647.12 1.317.059 1.926-.178a3.296 3.296 0 001.496-1.15A2.988 2.988 0 0017.5 37.5a3.03 3.03 0 00-.976-2.21 3.45 3.45 0 00-2.357-.915zm0 4.688c-.33 0-.652-.092-.926-.264a1.588 1.588 0 01-.614-.701 1.47 1.47 0 01-.095-.903c.064-.303.223-.581.456-.8.233-.218.53-.367.854-.428.323-.06.658-.029.963.09.304.118.564.318.747.575a1.488 1.488 0 01-.207 1.973 1.725 1.725 0 01-1.178.458zM20.833 25H1.667V13.281c0-.621.263-1.218.732-1.657a2.587 2.587 0 011.768-.687h6.666a.863.863 0 00.59-.228.757.757 0 00.244-.553.757.757 0 00-.244-.552.863.863 0 00-.59-.229H4.167a4.312 4.312 0 00-2.947 1.144A3.787 3.787 0 000 13.281v32.813c0 1.036.439 2.03 1.22 2.762A4.312 4.312 0 004.167 50h16.666c1.99 0 3.897-.74 5.304-2.06 1.406-1.318 2.196-3.106 2.196-4.971V32.03c0-1.865-.79-3.653-2.196-4.972C24.73 25.741 22.823 25 20.833 25zm5.834 17.969c0 1.45-.615 2.841-1.709 3.867-1.094 1.025-2.578 1.602-4.125 1.602H4.167a2.587 2.587 0 01-1.768-.687 2.272 2.272 0 01-.732-1.657V26.562h19.166c1.547 0 3.031.577 4.125 1.602 1.094 1.026 1.709 2.417 1.709 3.867V42.97zm-7.5-13.282H5.833a.862.862 0 00-.589.23.757.757 0 00-.244.552V44.53c0 .208.088.406.244.553a.862.862 0 00.59.228h13.333a4.312 4.312 0 002.946-1.144 3.787 3.787 0 001.22-2.762v-7.812c0-1.036-.439-2.03-1.22-2.762a4.312 4.312 0 00-2.946-1.145zm2.5 11.72c0 .62-.264 1.217-.733 1.657a2.587 2.587 0 01-1.767.686h-12.5v-12.5h12.5c.663 0 1.299.247 1.767.686.47.44.733 1.036.733 1.658v7.812z" fill="#ffff"/></svg>