<svg width="52" height="52" fill="none" xmlns="http://www.w3.org/2000/svg"><path d="M19.75 30.375c0 2.425 1.875 4.375 4.175 4.375h4.7c2 0 3.625-1.7 3.625-3.825 0-2.275-1-3.1-2.475-3.625l-7.525-2.625c-1.475-.525-2.475-1.325-2.475-3.625 0-2.1 1.625-3.825 3.625-3.825h4.7c2.3 0 4.175 1.95 4.175 4.375M26 14.75v22.5" stroke="#ffff" stroke-linecap="round" stroke-linejoin="round"/><path d="M51 26c0 13.8-11.2 25-25 25S1 39.8 1 26 12.2 1 26 1" stroke="#ffff" stroke-linecap="round" stroke-linejoin="round"/><path d="M38.5 3.5v10h10M51 1L38.5 13.5" stroke="#ffff" stroke-linecap="round" stroke-linejoin="round"/></svg>