<svg width="100" height="62" fill="none" xmlns="http://www.w3.org/2000/svg"><path d="M29.404 19.61c0 .191-.143.465-.593.72-.435.246-1.07.414-1.798.414s-1.363-.168-1.798-.414c-.45-.255-.592-.529-.592-.72 0-.192.142-.466.592-.72.436-.247 1.07-.414 1.798-.414s1.363.168 1.798.414c.45.254.593.528.593.72zm46.968 0c0 .191-.142.465-.593.72-.435.246-1.07.414-1.797.414-.728 0-1.363-.168-1.798-.414-.45-.255-.593-.529-.593-.72 0-.192.143-.466.593-.72.435-.247 1.07-.414 1.798-.414s1.362.168 1.797.414c.45.254.593.528.593.72zm0 22.878c0 .191-.142.465-.593.72-.435.246-1.07.414-1.797.414-.728 0-1.363-.168-1.798-.414-.45-.255-.593-.529-.593-.72 0-.192.143-.466.593-.72.435-.247 1.07-.415 1.798-.415s1.362.168 1.797.414c.45.255.593.529.593.72zm-46.968.545c0 .191-.143.465-.593.72-.435.246-1.07.414-1.798.414s-1.363-.168-1.798-.414c-.45-.255-.592-.529-.592-.72 0-.192.142-.466.592-.72.436-.247 1.07-.415 1.798-.415s1.363.168 1.798.414c.45.255.593.529.593.72zM1 1.19c22.233 18.976 18.99 41.44.7 60.235m96.6-60.34C76.19 20.354 80.006 42.771 99 61.32M2.62 1.089c29.741 8.876 64.819 7.801 94.098.8M2.446 59.59c30.008-8.974 65.044-7.207 94.099.8" stroke="#FFF8F8"/></svg>