<svg width="104" height="101" fill="none" xmlns="http://www.w3.org/2000/svg"><path d="M2.487 78.098l40.435-27.421 13.798.183L17.733 78.3l-15.246-.202zm2.787 14.198l45.5-34.19 13.98 1.897-44.05 34.387-15.43-2.094z" stroke="#FDFDFD"/><path d="M42.556 76.782L87.882 42.36l13.989 1.826-43.874 34.611-15.44-2.015z" stroke="#FDFDFD"/><path d="M85.71 49.839l.17-15.457a7.33 7.33 0 00-7.204-7.362l-48.307-.526a5.41 5.41 0 00-5.453 5.336l-.128 12.324a3 3 0 005.607 1.44c.335.343.682.983 1.234.947.706.078 1.406-1.208 1.985-1.789.574.586 1.245 1.888 1.946 1.818.701-.07 1.4-1.201 1.978-1.782.574.586 1.253 1.88 1.954 1.81.7-.07 1.406-1.194 1.978-1.781.58.593 1.26 1.887 1.96 1.817.7-.07 1.4-1.2 1.978-1.782.567.58 1.253 1.881 1.953 1.81.701-.07 1.407-1.193 1.986-1.774.58.594 1.245 1.874 1.953 1.81.708-.062 1.399-1.2 1.985-1.788.58.593 1.246 1.888 1.953 1.825.708-.063 1.4-1.201 1.979-1.782.587.6 1.252 1.88 1.953 1.81.7-.07 1.399-1.2 1.985-1.788.574.586 1.252 1.894 1.96 1.817.708-.077 1.4-1.2 1.979-1.782l1.2 1.456a1 1 0 001.534.01l.48-.568a3 3 0 005.67-1.084l.123-11.313a.63.63 0 01.629-.615l3.867.05a1.37 1.37 0 011.33 1.357l-.147 15.365a3 3 0 105.93.17zm-19.8-7.054a1 1 0 00-1.534-.01l-1.218 1.43c-.553-.565-1.246-1.874-1.953-1.81-.708.062-1.407 1.193-1.986 1.774-.552-.565-1.245-1.874-1.953-1.81-.708.062-1.399 1.2-1.978 1.78-.56-.57-1.252-1.88-1.953-1.81-.701.07-1.406 1.194-1.986 1.775-.552-.565-1.245-1.873-1.953-1.81-.708.063-1.399 1.2-1.978 1.781-.574-.586-1.252-1.88-1.96-1.817-.708.063-1.4 1.2-1.978 1.781l-1.187-1.44a.999.999 0 00-1.541-.018l-1.204 1.43c-.566-.58-1.252-1.88-1.96-1.818-.708.063-1.4 1.201-1.978 1.782-.56-.572-1.239-1.88-1.953-1.81-.715.07-1.456 1.2-1.979 1.781l-.949-1.17.111-9.524a.82.82 0 01.822-.804l35.926.398a.63.63 0 01.616.63l-.098 9.609-1.024 1.127-1.172-1.427zm16.651 7.967a1.05 1.05 0 01-.794-1.055l.181-15.358a3.43 3.43 0 00-3.308-3.38l-3.86-.042a2.62 2.62 0 00-2.645 2.587l-.123 11.313a1 1 0 01-1.141.893 1.07 1.07 0 01-.788-1.076l.122-11.158a2.68 2.68 0 00-2.588-2.645l-35.94-.384a2.81 2.81 0 00-2.86 2.797l-.12 11.073a1 1 0 11-1.929-.127l.149-12.331a3.39 3.39 0 013.43-3.357l48.307.526a5.28 5.28 0 015.224 5.34L83.71 49.81a.998.998 0 01-1.149.942z" fill="#F5F3F3"/></svg>