<svg width="15" height="21" fill="none" xmlns="http://www.w3.org/2000/svg"><path d="M6.992.02C4.579.197 2.406 1.591 1.129 3.782a8.254 8.254 0 00-.853 2.07 8.467 8.467 0 00.492 5.663c.308.665.6 1.134 1.09 1.753.055.07 1.215 1.678 2.574 3.57 1.48 2.06 2.508 3.475 2.562 3.527.3.292.712.292 1.012 0 .054-.052 1.081-1.466 2.562-3.527 1.36-1.892 2.52-3.5 2.574-3.57a7.954 7.954 0 001.09-1.753 8.48 8.48 0 00.28-6.35c-.569-1.587-1.559-2.904-2.9-3.854A7.187 7.187 0 006.993.019zm.902 3.873c.36.05.641.14.969.31.892.46 1.502 1.3 1.713 2.361.04.2.043.25.045.63 0 .458-.016.592-.113.953-.26.964-.945 1.774-1.823 2.154a2.821 2.821 0 01-.954.239 2.892 2.892 0 01-1.416-.24c-.878-.379-1.563-1.189-1.823-2.153-.097-.36-.113-.495-.113-.954.002-.38.005-.43.045-.629.18-.906.655-1.658 1.358-2.152.286-.199.705-.39 1.028-.465.337-.08.753-.1 1.084-.054z" fill="#B02F31"/></svg>