<svg width="100" height="60" viewBox="0 0 151 136" fill="none" xmlns="http://www.w3.org/2000/svg"><path d="M142.229 43.03H85.953l22.698-13.142c11.946-6.914 12.382-19.678.915-26.648-11.463-6.976-25.184-2.227-28.471 9.844l-5.837 21.43-5.837-21.43C66.133 1.011 52.412-3.736 40.948 3.241c-11.482 6.98-11.01 19.743.916 26.646l22.699 13.144H8.286C3.717 43.03 0 46.262 0 50.234v77.849c0 3.969 3.718 7.198 8.287 7.198H142.23c4.569 0 8.287-3.229 8.287-7.198v-77.85c0-3.97-3.718-7.202-8.287-7.202zm-55.19-28.725c2.242-8.237 10.924-11.649 19.024-6.72l.001.002c8.166 4.963 7.332 13.18-.8 17.886l-25.25 14.62 7.024-25.788zm-48.313 1.928c-.073-5.543 5.607-8.536 5.727-8.647 8.103-4.93 16.782-1.516 19.024 6.72l7.024 25.788-25.25-14.621c-4.101-2.374-6.48-5.742-6.525-9.24zm105.682 34v36.275H78.312V48.336h63.917c1.181 0 2.179.87 2.179 1.898zM8.288 48.337h63.916v38.172H6.108V50.234c0-1.029.998-1.898 2.18-1.898zm-2.18 79.747v-36.27h66.096v38.163H8.287c-1.18 0-2.18-.867-2.18-1.893zm136.121 1.893H78.312V91.813h66.096v36.27c0 1.026-.998 1.893-2.179 1.893z" fill="#E4DADA"/></svg>