<svg width="129" height="87" fill="none" xmlns="http://www.w3.org/2000/svg"><path d="M33.152 67.825c0 10.011-7.354 18.042-16.326 18.042C7.854 85.867.5 77.837.5 67.825c0-10.012 7.354-18.043 16.326-18.043 8.972 0 16.326 8.031 16.326 18.043z" stroke="#F8F8F8"/><path transform="matrix(.74051 -.67205 .59861 .80104 7.211 52.813)" stroke="#F8F8F8" d="M0-.5h36.788"/><path d="M29.947 68.266c0 7.3-5.711 13.186-12.72 13.186-7.01 0-12.72-5.887-12.72-13.186s5.71-13.186 12.72-13.186c7.009 0 12.72 5.887 12.72 13.186z" stroke="#F8F8F8"/><path d="M78.793 50.023a1.27 1.27 0 001.77-.022 1.252 1.252 0 00-.023-1.77L59.074 27.3l29.598-.373a1.25 1.25 0 10-.031-2.5l-32.098.405-5.69-5.549a9.4 9.4 0 10-6.314-2.66l8.454 8.253-12.179.154a9.46 9.46 0 106.391 2.42l8.33-.105 23.258 22.678zM46.173 5.051a6.92 6.92 0 11.123 9.79 6.93 6.93 0 01-.123-9.79zm1.67 29.311a6.92 6.92 0 11-13.839.175 6.92 6.92 0 0113.839-.175z" fill="#FCFCFC"/><path d="M78.793 50.023a1.27 1.27 0 001.77-.022 1.252 1.252 0 00-.023-1.77L59.074 27.3l29.598-.373a1.25 1.25 0 10-.031-2.5l-32.098.405-5.69-5.549a9.4 9.4 0 10-6.314-2.66l8.454 8.253-12.179.154a9.46 9.46 0 106.391 2.42l8.33-.105 23.258 22.678zM46.173 5.051a6.92 6.92 0 11.123 9.79 6.93 6.93 0 01-.123-9.79zm1.67 29.311a6.92 6.92 0 11-13.839.175 6.92 6.92 0 0113.839-.175z" stroke="#FDFDFD"/><path d="M25.177 84.101L79.142 25.5h48.785L78.689 84.101H25.177z" stroke="#F8F8F8"/></svg>